<?xml version="1.0" encoding="utf-8"?>
<?xml-stylesheet type="text/xsl" href="rss1.xsl"?>
<rss version="2.0" xmlns:atom="http://www.w3.org/2005/Atom" xmlns:content="http://purl.org/rss/1.0/modules/content/" xmlns:dc="http://purl.org/dc/elements/1.1/" xmlns:media="http://search.yahoo.com/mrss/">
<channel>
 <title>Getty</title>
 <link>http://www.gettyimg.com/</link>
 <atom:link href="http://www.gettyimg.com/" rel="self" type="application/rss+xml" />

 
                <item>
                <title><![CDATA[【Singles (lossless)】FLAC - Selena Gomez - Love On | Qobuz Hi-Res | 24bits ／ 44.1kHz]]></title>
                <link><![CDATA[https://sharemania.us/threads/selena-gomez-love-on-qobuz-hi-res-24bits-%EF%BC%8F-44-1khz.238359/]]></link>
                <description><![CDATA[<article>
<blockquote class="messageText SelectQuoteContainer ugc baseHtml">
<div style="text-align: center"><span style="font-family: 'Times New Roman'"><span style="font-size: 15px"><b><img src="https://a5.mzstatic.com/us/r1000/0/Music112/v4/f9/f4/48/f9f44872-8e4c-76c7-8642-dc8ff19053e9/24UMGIM13716.rgb.jpg" class="bbCodeImage LbImage" alt="[​IMG]" data-url="https://a5.mzstatic.com/us/r1000/0/Music112/v4/f9/f4/48/f9f44872-8e4c-76c7-8642-dc8ff19053e9/24UMGIM13716.rgb.jpg" style=""> </b><br>
<br>
<br>
<b>Pixeldrain:</b><br>
</span><br>
<span style="font-size: 18px">
<div class="bbCodeBlock bbCodeVfcHH HiddenContent">
<div class="attribution type">Hidden Content:</div>
<blockquote>You must reply before you can see the hidden data contained here.</blockquote>
</div></span></span>​</div>
<div class="messageTextEndMarker">&nbsp;</div>
</blockquote>
</article>]]></description>
                <author><![CDATA[Nuric]]></author>
                </item>

                
                <item>
                <title><![CDATA[【MASTER &amp; MASTER RIP】MASTER - EMILIA, NATHY PELUSO- JET SET [Master 4K]]]></title>
                <link><![CDATA[https://sharemania.us/threads/emilia-nathy-peluso-jet-set-master-4k.238360/]]></link>
                <description><![CDATA[<article>
<blockquote class="messageText SelectQuoteContainer ugc baseHtml">
<div style="text-align: center"><img src="https://i.imgur.com/xzMznJj.gif" class="bbCodeImage LbImage" alt="[​IMG]" data-url="https://i.imgur.com/xzMznJj.gif" style=""><br>
​</div>
<div class="ToggleTriggerAnchor bbCodeSpoilerContainer">
<button type="button" class="button bbCodeSpoilerButton ToggleTrigger Tooltip JsOnly" data-target="> .SpoilerTarget"><span>Spoiler: <span class="SpoilerTitle">MASTER</span></span></button>
<div class="SpoilerTarget bbCodeSpoilerText">
<div class="bbCodeBlock bbCodeCode">
<div class="type">Code:</div>
<pre>Format                                   : MPEG-4
Format profile                           : Base Media / Version 2
Codec ID                                 : mp42 (mp42/mp41)
File size                                : 2.55 GiB
Duration                                 : 3 min 32 s
Overall bit rate mode                    : Variable
Overall bit rate                         : 103 Mb/s
Encoded date                             : UTC 2024-01-13 02:33:30
Tagged date                              : UTC 2024-01-13 02:34:27
TIM                                      : 00:00:00:00
TSC                                      : 25
TSZ                                      : 1

Video
ID                                       : 1
Format                                   : AVC
Format/Info                              : Advanced Video Codec
Format profile                           : Main@L5.1
Format settings                          : CABAC / 3 Ref Frames
Format settings, CABAC                   : Yes
Format settings, Reference frames        : 3 frames
Format settings, GOP                     : M=1, N=30
Codec ID                                 : avc1
Codec ID/Info                            : Advanced Video Coding
Duration                                 : 3 min 32 s
Bit rate                                 : 103 Mb/s
Width                                    : 2 880 pixels
Height                                   : 2 160 pixels
Display aspect ratio                     : 4:3
Frame rate mode                          : Constant
Frame rate                               : 25.000 FPS
Color space                              : YUV
Chroma subsampling                       : 4:2:0
Bit depth                                : 8 bits
Scan type                                : Progressive
Bits/(Pixel*Frame)                       : 0.660
Stream size                              : 2.54 GiB (100%)
Language                                 : English
Encoded date                             : UTC 2024-01-13 02:33:30
Tagged date                              : UTC 2024-01-13 02:33:30
Codec configuration box                  : avcC

Audio
ID                                       : 2
Format                                   : AAC LC
Format/Info                              : Advanced Audio Codec Low Complexity
Codec ID                                 : mp4a-40-2
Duration                                 : 3 min 32 s
Source duration                          : 3 min 32 s
Bit rate mode                            : Variable
Bit rate                                 : 317 kb/s
Maximum bit rate                         : 543 kb/s
Channel(s)                               : 2 channels
Channel layout                           : L R
Sampling rate                            : 48.0 kHz
Frame rate                               : 46.875 FPS (1024 SPF)
Compression mode                         : Lossy
Stream size                              : 8.03 MiB (0%)
Source stream size                       : 8.04 MiB (0%)
Language                                 : English
Encoded date                             : UTC 2024-01-13 02:33:30
Tagged date                              : UTC 2024-01-13 02:33:30</pre>
</div><div style="text-align: center">​</div></div>
</div><div style="text-align: center"><br>
<br>
<div class="bbCodeBlock bbCodeVfcHH HiddenContent">
<div class="attribution type">Hidden Content:</div>
<blockquote>You must reply before you can see the hidden data contained here.</blockquote>
</div></div>
<div class="messageTextEndMarker">&nbsp;</div>
</blockquote>
</article>]]></description>
                <author><![CDATA[fstambuk]]></author>
                </item>

                </channel></rss>